<?xml version="1.0" encoding="UTF-8"?>
<svg version="1.1" xmlns="http://www.w3.org/2000/svg" width="1586" height="1565">
<path d="M0 0 C5.4881686 4.10646418 9.51232781 9.3979406 13.65625 14.78515625 C14.56987305 15.96670288 14.56987305 15.96670288 15.50195312 17.17211914 C21.6201426 25.11932029 27.56097531 33.19327583 33.47753906 41.29101562 C35.18735613 43.61744087 36.91456331 45.92974596 38.6484375 48.23828125 C60.67254315 77.6339883 79.62143262 108.49270997 93.21875 142.66015625 C93.69779785 143.8524585 93.69779785 143.8524585 94.18652344 145.06884766 C126.27380352 225.90599033 130.03914476 317.06499916 127.5278511 496.25972462 C127.44368541 499.90233627 127.35966929 503.54495135 127.27574921 507.18756866 C127.2393687 508.76573095 127.20292222 510.34389171 127.16638947 511.92205048 C126.25115936 551.50401176 126.11807865 591.08154337 126.09735382 630.67208815 C126.09519716 634.78942894 126.09194122 638.90676654 126.08767563 643.02410567 C125.8504657 772.97064276 125.8504657 772.97064276 215.21875 991.91015625 C216.13253418 992.8333667 217.04631836 993.75657715 217.98779297 994.70776367 C224.09362805 1000.78466891 230.49108545 1006.28765659 237.21875 1011.66015625 C239.33871768 1013.43413183 241.43314808 1015.23516083 243.53125 1017.03515625 C248.08905665 1020.92477021 252.73746172 1024.67145996 257.46875 1028.34765625 C269.44398418 1037.67568122 269.44398418 1037.67568122 273.21875 1041.66015625 C273.21875 1042.32015625 273.21875 1042.98015625 273.21875 1043.66015625 C267.10268734 1041.97901255 261.80313971 1038.8854702 256.28125 1035.84765625 C255.22655518 1035.27088135 254.17186035 1034.69410645 253.08520508 1034.09985352 C249.79227484 1032.29397401 246.50474955 1030.47861248 243.21875 1028.66015625 C242.20844727 1028.10263672 241.19814453 1027.54511719 240.15722656 1026.97070312 C216.58401225 1013.92887865 194.76099011 1000.28947419 175.21875 981.66015625 C174.49042969 980.97308594 173.76210937 980.28601562 173.01171875 979.578125 C167.59652649 974.33382638 162.85062029 968.59817847 158.21875 962.66015625 C157.75952148 962.07202148 157.30029297 961.48388672 156.82714844 960.87792969 C127.25889222 922.76553522 109.22612934 881.63787573 101.41049671 834.08934402 C100.73101122 829.98319725 100.02864655 825.88095567 99.32904053 821.77819824 C98.13674568 814.76878625 96.95761437 807.757274 95.78833008 800.74398804 C93.95636676 789.75646185 92.10047707 778.77305221 90.24023438 767.7902832 C89.61391905 764.09130935 88.98772527 760.39231493 88.36157227 756.6933136 C88.20659901 755.77796308 88.05162575 754.86261255 87.89195633 753.91952413 C86.7960119 747.44446318 85.7038948 740.96876324 84.61303711 734.49284363 C80.96971738 712.87507623 77.2563674 691.27132762 73.43611622 669.68412375 C72.96292889 667.00887443 72.49088845 664.33342335 72.01890016 661.65796226 C69.25896741 646.01289234 69.25896741 646.01289234 66.46911621 630.37313843 C61.65580278 603.52022067 57.49243709 576.85129457 55.21875 549.66015625 C55.09302109 548.1665967 55.09302109 548.1665967 54.9647522 546.64286423 C53.47273404 528.86295984 52.09045694 511.07467238 50.71875 493.28515625 C46.44360651 434.20603026 46.44360651 434.20603026 39.40625 375.41015625 C39.28280212 374.5636853 39.15935425 373.71721436 39.03216553 372.84509277 C28.7514197 302.63078375 11.70279305 225.77794513 -44.5234375 177.6328125 C-48.06149852 174.54160001 -51.49186111 171.33448506 -54.92626953 168.12890625 C-58.03078723 165.23964232 -61.19550839 162.48383949 -64.46875 159.78515625 C-81.40310578 144.71513321 -90.83485559 119.73848813 -92.78125 97.66015625 C-94.44844633 67.8875623 -91.04759 36.35919878 -70.85644531 12.82348633 C-51.7077352 -8.40382233 -25.16148765 -15.46742134 0 0 Z " fill="#231F20" transform="translate(874.78125,254.33984375)"/>
<path d="M0 0 C0.84836426 0.12979248 1.69672852 0.25958496 2.57080078 0.39331055 C38.91633003 6.39743962 73.08345042 23.52024138 94.9375 53.875 C112.36526375 79.09566624 120.18561162 108.69557911 123.5 138.875 C123.63148438 140.05449219 123.76296875 141.23398437 123.8984375 142.44921875 C127.69117792 184.9381621 121.32916061 230.29292312 100.5 267.875 C100.03464844 268.80183594 99.56929687 269.72867187 99.08984375 270.68359375 C89.46779448 289.56300821 74.8293612 306.21162949 61.00732422 322.12939453 C59.51564678 323.85687975 58.03879474 325.59590215 56.56640625 327.33984375 C50.67886059 334.30034419 44.61335076 341.04857069 38.36425781 347.68676758 C34.9376816 351.32690759 31.58602144 355.00812909 28.328125 358.80078125 C26.32642838 361.07193703 24.26837886 363.28332783 22.20288086 365.49633789 C17.12711657 370.93650797 12.28680092 376.47736987 7.62890625 382.28515625 C5.58079578 384.77671082 3.44496742 387.13772109 1.25 389.5 C-4.57623126 395.90479429 -9.72184772 402.8235662 -14.90527344 409.74951172 C-16.36634089 411.69685606 -17.84126418 413.63271089 -19.3203125 415.56640625 C-43.15605768 447.01802584 -54.33474011 478.55276328 -61.5 516.875 C-63.15 516.875 -64.8 516.875 -66.5 516.875 C-67.71934473 476.8624285 -58.78942072 440.29467374 -38.5 405.875 C-38.04093262 405.09205566 -37.58186523 404.30911133 -37.10888672 403.50244141 C-24.78841212 382.66336196 -10.73571934 362.83943664 2.97680664 342.90307617 C50.34292725 274.15858977 50.34292725 274.15858977 66.8125 193.8125 C66.80686035 192.55244141 66.8012207 191.29238281 66.79541016 189.99414062 C66.4214657 160.86349715 59.18732958 122.3395472 38.19921875 100.31640625 C25.82215126 89.81723865 10.9006348 84.90059677 -5.17385864 85.67542648 C-13.50161226 86.38991405 -21.70024151 88.51566643 -29.84375 90.31640625 C-32.05358143 90.79328454 -34.26369303 91.26886609 -36.47406006 91.74325562 C-42.41937824 93.02353378 -48.3602687 94.32333481 -54.3004303 95.62730026 C-59.25513063 96.71237156 -64.21229886 97.78591241 -69.16952896 98.85935688 C-113.9957402 108.56742342 -158.76647936 118.53314852 -203.515625 128.58984375 C-204.47121056 128.80453686 -205.42679611 129.01922997 -206.41133881 129.24042892 C-209.06375943 129.83664354 -211.71600428 130.4336321 -214.36816406 131.03100586 C-215.14120628 131.20482568 -215.9142485 131.3786455 -216.71071625 131.55773258 C-220.62400554 132.43433539 -220.62400554 132.43433539 -224.51275253 133.4121027 C-237.32273133 136.39598101 -250.4192114 132.82195679 -261.6875 126.75 C-275.11528885 118.38195767 -284.06095217 106.04664883 -288 90.8125 C-291.52028154 75.43558722 -289.57704964 59.20203759 -281.3828125 45.53125 C-272.55730521 33.08032685 -261.54424142 23.7507253 -246.5 19.875 C-243.95098445 19.49732997 -241.4280011 19.16765359 -238.86859131 18.89273071 C-238.1298426 18.80975978 -237.3910939 18.72678886 -236.62995887 18.64130366 C-227.67079209 17.64816053 -218.69931803 16.77389375 -209.72753906 15.90380859 C-207.80837872 15.71644246 -205.8892303 15.52895407 -203.97009277 15.34135437 C-197.7355337 14.73265931 -191.50060961 14.12775596 -185.265625 13.5234375 C-183.66454659 13.36816676 -183.66454659 13.36816676 -182.03112316 13.20975924 C-171.93555762 12.23076675 -161.83986551 11.25309085 -151.74383926 10.27886009 C-138.91594829 9.04094394 -126.08875153 7.79629083 -113.26241899 6.54232728 C-104.1932864 5.65625159 -95.12341955 4.77796058 -86.05298781 3.90528548 C-80.6579971 3.38602519 -75.26337074 2.86351772 -69.86951447 2.33259201 C-64.79108925 1.83288335 -59.71180765 1.34296353 -54.63175964 0.86004066 C-52.78578575 0.68293556 -50.94012577 0.50251579 -49.09485626 0.31821632 C-32.93081015 -1.29269556 -16.12558409 -2.60377365 0 0 Z " fill="#231F20" transform="translate(1237.5,192.125)"/>
<path d="M0 0 C3.37462715 0.54723683 5.08235 1.0549 8 3 C7.37055053 6.95279821 6.14276179 10.18660902 4.4453125 13.8046875 C3.6550769 15.49875732 3.6550769 15.49875732 2.84887695 17.22705078 C2.27455307 18.44317641 1.69992007 19.6591561 1.125 20.875 C0.5337894 22.13380679 -0.05710864 23.39276042 -0.64770508 24.65185547 C-1.84930187 27.21035455 -3.0547367 29.76699523 -4.26318359 32.32226562 C-5.83791364 35.65285383 -7.39834796 38.98999384 -8.95703125 42.328125 C-19.51539104 64.82924164 -30.81039789 83.94197817 -48 102 C-48.69222656 102.75667969 -49.38445312 103.51335937 -50.09765625 104.29296875 C-59.79787206 114.55389067 -71.39533984 122.97179017 -83.8125 129.625 C-84.55161621 130.0264624 -85.29073242 130.4279248 -86.05224609 130.84155273 C-95.89536054 135.88016087 -106.8416538 137.4616639 -117.67456055 139.0847168 C-118.88787174 139.27042457 -120.10118294 139.45613234 -121.35126114 139.64746761 C-125.36179739 140.25699928 -129.37381292 140.85553995 -133.38671875 141.44921875 C-134.08209346 141.55229513 -134.77746817 141.6553715 -135.49391484 141.76157141 C-146.0937131 143.33095996 -156.69966809 144.85545162 -167.30997276 146.35207605 C-168.89367333 146.57550613 -170.47731838 146.79932999 -172.06090736 147.02354956 C-224.47704452 154.44334439 -275.41246962 158.10711141 -328.42643738 156.30082703 C-345.40885348 155.74922369 -362.22054711 156.65372187 -378.875 160.25 C-379.90834473 160.46760986 -380.94168945 160.68521973 -382.00634766 160.90942383 C-409.56968392 166.93182694 -435.65618723 179.10053739 -452.6875 202.375 C-453.19514893 203.05836426 -453.70279785 203.74172852 -454.22583008 204.44580078 C-457.44750253 208.80712933 -460.57126737 213.23074376 -463.66333008 217.68457031 C-473.62480957 232.0005072 -483.09230535 243.79921701 -501.0625 247.56640625 C-514.21159735 249.50729695 -526.02109924 246.49429313 -537 239 C-548.46498742 229.76337067 -557.129887 215.75636039 -559 201 C-560.43678888 183.16521663 -559.71771327 163.82518978 -547.6741333 149.41342163 C-543.99467047 145.35524679 -540.06039931 141.55717828 -536.125 137.75 C-534.9663384 136.60789534 -533.80877922 135.46467117 -532.65234375 134.3203125 C-527.45623349 129.20022342 -522.20827782 124.18165112 -516.6640625 119.43652344 C-514.1776361 117.29008375 -511.81970133 115.01083736 -509.4375 112.75 C-485.53743795 90.62743773 -455.92642244 77.56141988 -424 72 C-423.31196289 71.87995605 -422.62392578 71.75991211 -421.91503906 71.63623047 C-379.00850689 64.61078316 -334.22806109 73.838714 -292.1796875 82.10546875 C-269.79086731 86.50448392 -247.37765482 90.51907123 -224.83613968 94.0479393 C-222.79112977 94.36855176 -220.74647077 94.69132286 -218.70187378 95.01455688 C-194.41948124 98.84434517 -170.137417 102.63493097 -145.5 102.375 C-144.28754608 102.36802094 -144.28754608 102.36802094 -143.05059814 102.36090088 C-131.16950428 102.28125598 -119.56847247 101.95246729 -108 99 C-107.19546387 98.80132324 -106.39092773 98.60264648 -105.56201172 98.39794922 C-65.2906328 88.16725638 -39.08494917 61.58194762 -17.54052734 27.43945312 C-15.79070304 24.66857445 -14.03065686 21.90433394 -12.26953125 19.140625 C-9.28720549 14.46037689 -6.31030321 9.77672702 -3.33764648 5.09033203 C-2.24400585 3.38130646 -1.12548359 1.68822538 0 0 Z " fill="#00ADEF" transform="translate(713,327)"/>
<path d="M0 0 C4.75 1.875 4.75 1.875 7 3 C6.43162398 7.39410932 5.33245259 10.90099779 3.4453125 14.90234375 C2.9184082 16.02866211 2.39150391 17.15498047 1.84863281 18.31542969 C1.27440901 19.52293891 0.69985706 20.73029213 0.125 21.9375 C-0.46568073 23.19018864 -1.05584376 24.44312153 -1.64550781 25.69628906 C-2.84550167 28.24284745 -4.05024392 30.7870791 -5.25878906 33.32958984 C-6.84985824 36.67840851 -8.42265356 40.03555905 -9.9921875 43.39453125 C-20.91528587 66.6683844 -32.78399026 86.6956135 -51 105 C-51.50789063 105.51191895 -52.01578125 106.02383789 -52.5390625 106.55126953 C-66.7888676 120.72010983 -86.64078142 135.22359187 -107.00714111 137.95509338 C-108.18733322 138.11626648 -109.36752533 138.27743958 -110.58348083 138.4434967 C-111.86465286 138.61239914 -113.14582489 138.78130157 -114.46582031 138.95532227 C-115.83969226 139.14068699 -117.21349533 139.32656273 -118.5872345 139.51290894 C-122.30780776 140.01608515 -126.02931635 140.51199874 -129.75105 141.00650907 C-133.65600337 141.52653272 -137.56009425 142.05295508 -141.46429443 142.57859802 C-148.02401806 143.46084005 -154.58431296 144.33872196 -161.14501953 145.21362305 C-169.54314253 146.33357117 -177.94032106 147.46044044 -186.33720779 148.58961582 C-193.5798071 149.56353449 -200.82280287 150.53449244 -208.06587887 151.50485873 C-210.38177413 151.81522011 -212.69762187 152.12593439 -215.01346588 152.43667793 C-218.66744596 152.92676039 -222.32166886 153.41499385 -225.97607994 153.90185165 C-227.94233275 154.16416426 -229.90837324 154.42806689 -231.87440491 154.69203186 C-241.9050487 156.02516101 -251.69996639 157.16484245 -261.82641602 157.06591797 C-262.75332245 157.06124512 -263.68022888 157.05657227 -264.63522339 157.05175781 C-266.63268305 157.04132484 -268.63013221 157.02868613 -270.62756538 157.01403427 C-273.81510223 156.99175986 -277.00257729 156.97784067 -280.19017029 156.96633911 C-289.24885418 156.93301336 -298.30743839 156.89185022 -307.3659668 156.82861328 C-312.92778697 156.79038735 -318.48950277 156.76776622 -324.05143547 156.75430679 C-326.14365477 156.74638909 -328.23586245 156.73298398 -330.32800484 156.71337509 C-371.03860738 156.33888499 -413.59674457 163.27966556 -444.4375 191.9375 C-451.82720877 199.60681937 -457.64116119 208.76003012 -463.72314453 217.46679688 C-465.41166781 219.87938427 -467.11186653 222.28344088 -468.8125 224.6875 C-469.31491211 225.41702881 -469.81732422 226.14655762 -470.33496094 226.89819336 C-475.70385762 234.47786371 -481.87333832 239.87117712 -490.25 243.875 C-491.43078125 244.44992187 -492.6115625 245.02484375 -493.828125 245.6171875 C-502.89719451 249.57094441 -515.56610044 249.61562681 -524.9375 246.4375 C-542.62636119 238.67827561 -551.23117163 226.45101154 -558.16796875 209.07421875 C-563.18923111 192.78458358 -560.99732747 173.26237859 -553.8125 158.05859375 C-549.02828865 149.49971702 -541.58710683 143.02424555 -534.625 136.25 C-533.22545744 134.8670028 -531.82701151 133.48289494 -530.4296875 132.09765625 C-524.11114188 125.86134625 -517.71955109 119.80478915 -511 114 C-509.96693652 113.08781842 -508.93435187 112.17509415 -507.90234375 111.26171875 C-474.77695708 82.50067815 -434.60273844 70.52371341 -391.125 70.625 C-390.15958282 70.6262085 -389.19416565 70.62741699 -388.19949341 70.62866211 C-358.37917185 70.72920657 -329.85360119 75.73597453 -300.65933228 81.34239197 C-270.6323398 87.1059441 -240.54321486 92.36280817 -210.3125 96.9375 C-209.06034698 97.12899628 -207.80819397 97.32049255 -206.51809692 97.51779175 C-186.54954251 100.55882785 -166.43532463 103.45360157 -146.1875 103.25 C-144.63289062 103.23984863 -144.63289062 103.23984863 -143.046875 103.22949219 C-104.47072277 102.7168919 -71.10713582 90.02614506 -43.578125 62.5859375 C-31.60252638 49.96197845 -22.59475829 34.95471436 -13.359375 20.296875 C-9.03434593 13.44519665 -4.53750762 6.71216565 0 0 Z " fill="#EC008B" transform="translate(860,806)"/>
<path d="M0 0 C5.72043658 2.43422833 5.72043658 2.43422833 6.85253906 4.7253418 C7.06841886 8.05539492 5.85735697 10.14699841 4.421875 13.14453125 C4.13956528 13.74250015 3.85725555 14.34046906 3.56639099 14.95655823 C2.63882943 16.91411659 1.69477919 18.86320072 0.75 20.8125 C0.10229344 22.16896701 -0.54442702 23.5259053 -1.19018555 24.88330078 C-2.4968322 27.62552944 -3.81002341 30.36447529 -5.12841797 33.10107422 C-6.79697273 36.56867396 -8.43668567 40.0491084 -10.06640625 43.53515625 C-20.1617616 65.06956315 -31.03257156 84.45271571 -47.66601562 101.61914062 C-48.80709516 102.80031666 -49.92902424 103.99994212 -51.046875 105.203125 C-60.9926552 115.65894521 -73.18918471 124.41190227 -86 131 C-86.79683701 131.44543655 -87.59367401 131.89087311 -88.41465759 132.34980774 C-100.72283728 138.46133486 -114.33254218 139.72119028 -127.78569722 141.64673066 C-129.99878542 141.96469156 -132.21094894 142.28848112 -134.42294121 142.61397362 C-144.79774132 144.13863324 -155.18101156 145.59740891 -165.56887054 147.0301156 C-168.06102339 147.37479578 -170.55274942 147.72241658 -173.04437256 148.07090378 C-226.06125079 155.47710493 -277.50007088 159.14988845 -331.10209084 157.31914902 C-370.34504618 155.99606157 -412.75889749 163.16156424 -442.62109375 190.56640625 C-448.43190658 196.51080099 -453.50789524 202.85083332 -458.3125 209.625 C-458.87227539 210.40407715 -459.43205078 211.1831543 -460.00878906 211.98583984 C-462.62482865 215.63264375 -465.21297509 219.29509221 -467.74609375 223 C-476.34338136 235.51384808 -486.06812351 245.05936921 -501.4375 248.4375 C-515.07946256 250.34148614 -527.58889491 247.27369684 -538.58984375 239.02734375 C-550.00918789 229.42176902 -558.20325675 215.98355529 -560 201 C-561.2304433 183.34313858 -560.59003962 164.49356121 -548.55108643 150.29064941 C-544.41565274 145.77088866 -540.01853535 141.5162338 -535.625 137.25 C-534.32181002 135.9633595 -533.01971873 134.67560519 -531.71875 133.38671875 C-526.129798 127.87067095 -520.51879226 122.41340536 -514.54003906 117.31689453 C-512.47865098 115.55419204 -510.5314545 113.67723762 -508.5625 111.8125 C-479.4637213 85.76511299 -440.62121889 71.03688266 -401.57421875 70.796875 C-400.79813766 70.78972473 -400.02205658 70.78257446 -399.22245789 70.77520752 C-360.82510185 70.50296545 -324.33973774 76.88012402 -286.75390625 84.171875 C-263.73283184 88.62370957 -240.67521189 92.58652722 -217.49508286 96.10578156 C-215.34518739 96.43253203 -213.19559852 96.76124011 -211.04605103 97.090271 C-189.75506803 100.34130637 -168.57898955 103.40710861 -147 103.3125 C-145.98398712 103.30976578 -145.98398712 103.30976578 -144.94744873 103.30697632 C-106.85775714 103.13627276 -73.94914394 91.93741008 -46.125 65.5 C-35.33129618 54.4326048 -26.71242414 41.46578848 -18.52001953 28.41894531 C-16.1581865 24.66034563 -13.77593719 20.9147655 -11.39428711 17.16870117 C-10.15434981 15.21730611 -8.91678724 13.26439959 -7.68188477 11.30981445 C-7.11655029 10.41738037 -6.55121582 9.52494629 -5.96875 8.60546875 C-5.46794922 7.81293701 -4.96714844 7.02040527 -4.45117188 6.20385742 C-3.04483911 4.068096 -1.55685254 2.02789875 0 0 Z " fill="#FFF100" transform="translate(787,566)"/>
</svg>
